<svg xmlns="http://www.w3.org/2000/svg" xmlns:xlink="http://www.w3.org/1999/xlink" width="73" zoomAndPan="magnify" viewBox="0 0 54.75 54.749999" height="73" preserveAspectRatio="xMidYMid meet" version="1.0"><defs><clipPath id="id1"><path d="M 28 7.191406 L 54.5 7.191406 L 54.5 47.550781 L 28 47.550781 Z M 28 7.191406 " clip-rule="nonzero"/></clipPath><clipPath id="id2"><path d="M 0 7.191406 L 26 7.191406 L 26 47.550781 L 0 47.550781 Z M 0 7.191406 " clip-rule="nonzero"/></clipPath></defs><g clip-path="url(#id1)"><path fill="#144e5f" d="M 41.292969 47.507812 C 33.757812 47.507812 28.3125 41.304688 28.320312 32.125 C 28.363281 18.785156 38.429688 9.347656 52.949219 7.535156 C 54.296875 7.367188 54.8125 9.230469 53.578125 9.777344 C 48.003906 12.25 45.1875 15.378906 44.824219 18.480469 C 44.554688 20.800781 45.816406 22.828125 47.40625 23.207031 C 51.519531 24.191406 54.273438 29.292969 54.273438 34.574219 C 54.273438 41.714844 48.464844 47.507812 41.292969 47.507812 Z M 41.292969 47.507812 " fill-opacity="1" fill-rule="nonzero"/></g><g clip-path="url(#id2)"><path fill="#144e5f" d="M 12.972656 47.507812 C 5.4375 47.507812 -0.0078125 41.304688 0 32.125 C 0.0429688 18.785156 10.109375 9.347656 24.632812 7.535156 C 25.976562 7.367188 26.492188 9.230469 25.257812 9.777344 C 19.683594 12.25 16.871094 15.378906 16.507812 18.480469 C 16.238281 20.800781 17.496094 22.828125 19.089844 23.207031 C 23.199219 24.191406 25.953125 29.292969 25.953125 34.574219 C 25.953125 41.714844 20.144531 47.507812 12.972656 47.507812 Z M 12.972656 47.507812 " fill-opacity="1" fill-rule="nonzero"/></g></svg>